<svg id="svg" version="1.1" xmlns="http://www.w3.org/2000/svg" xmlns:xlink="http://www.w3.org/1999/xlink" width="400" height="400" viewBox="0, 0, 400,400"><g id="svgg"><path id="path0" d="M238.200 27.200 C 238.064 27.420,236.534 27.600,234.800 27.600 C 233.066 27.600,231.536 27.780,231.400 28.000 C 231.264 28.220,230.730 28.400,230.214 28.400 C 229.264 28.400,225.912 29.948,225.667 30.500 C 225.593 30.665,225.257 30.800,224.919 30.800 C 224.142 30.800,217.600 37.426,217.600 38.214 C 217.600 38.536,217.420 38.800,217.200 38.800 C 216.980 38.800,216.800 39.160,216.800 39.600 C 216.800 40.040,216.620 40.400,216.400 40.400 C 216.180 40.400,216.000 40.760,216.000 41.200 C 216.000 41.640,215.820 42.000,215.600 42.000 C 215.380 42.000,215.200 42.414,215.200 42.920 C 215.200 43.426,215.043 44.011,214.850 44.220 C 212.943 46.290,212.935 344.823,214.842 345.533 C 215.039 345.607,215.200 346.192,215.200 346.833 C 215.200 347.475,215.380 348.000,215.600 348.000 C 215.820 348.000,216.000 348.540,216.000 349.200 C 216.000 349.860,216.180 350.400,216.400 350.400 C 216.620 350.400,216.800 350.653,216.800 350.962 C 216.800 351.628,218.468 354.941,218.900 355.133 C 219.065 355.207,219.200 355.612,219.200 356.033 C 219.200 356.455,219.380 356.800,219.600 356.800 C 219.820 356.800,220.000 357.030,220.000 357.312 C 220.000 357.593,220.360 358.083,220.800 358.400 C 221.240 358.717,221.600 359.209,221.600 359.492 C 221.600 359.775,222.140 360.572,222.800 361.263 C 223.460 361.954,224.000 362.680,224.000 362.878 C 224.000 363.075,224.405 363.660,224.900 364.178 C 228.863 368.323,229.771 369.200,230.102 369.200 C 230.309 369.200,230.983 369.740,231.600 370.400 C 232.217 371.060,232.926 371.600,233.177 371.600 C 233.428 371.600,234.020 371.960,234.492 372.400 C 234.964 372.840,235.587 373.200,235.875 373.200 C 236.164 373.200,236.400 373.380,236.400 373.600 C 236.400 373.820,236.683 374.000,237.029 374.000 C 237.374 374.000,237.927 374.270,238.257 374.600 C 238.587 374.930,239.199 375.200,239.616 375.200 C 240.034 375.200,241.017 375.560,241.800 376.000 C 242.583 376.440,243.579 376.800,244.012 376.800 C 244.445 376.800,244.800 376.980,244.800 377.200 C 244.800 377.420,245.340 377.600,246.000 377.600 C 246.660 377.600,247.200 377.780,247.200 378.000 C 247.200 378.220,247.920 378.400,248.800 378.400 C 249.680 378.400,250.400 378.580,250.400 378.800 C 250.400 379.022,251.467 379.200,252.800 379.200 C 254.133 379.200,255.200 379.378,255.200 379.600 C 255.200 379.847,257.267 380.000,260.600 380.000 C 263.933 380.000,266.000 379.847,266.000 379.600 C 266.000 379.374,267.133 379.200,268.600 379.200 C 270.067 379.200,271.200 379.026,271.200 378.800 C 271.200 378.580,271.920 378.400,272.800 378.400 C 273.680 378.400,274.400 378.220,274.400 378.000 C 274.400 377.780,274.940 377.600,275.600 377.600 C 276.260 377.600,276.800 377.420,276.800 377.200 C 276.800 376.980,277.149 376.800,277.576 376.800 C 278.003 376.800,278.464 376.620,278.600 376.400 C 278.736 376.180,279.287 376.000,279.824 376.000 C 280.361 376.000,280.800 375.820,280.800 375.600 C 280.800 375.380,281.091 375.200,281.446 375.200 C 282.162 375.200,286.123 373.174,286.333 372.700 C 286.407 372.535,286.677 372.397,286.933 372.393 C 287.995 372.376,298.800 362.095,298.800 361.101 C 298.800 360.813,299.160 360.317,299.600 360.000 C 300.040 359.683,300.400 359.193,300.400 358.912 C 300.400 358.630,300.580 358.400,300.800 358.400 C 301.020 358.400,301.200 358.130,301.200 357.800 C 301.200 357.470,301.346 357.200,301.525 357.200 C 301.704 357.200,302.098 356.570,302.400 355.800 C 302.702 355.030,303.086 354.400,303.253 354.400 C 303.420 354.400,303.611 353.545,303.678 352.500 L 303.800 350.600 306.800 350.291 C 316.197 349.323,324.477 345.729,330.696 339.920 C 331.848 338.844,333.423 337.699,334.196 337.376 C 334.968 337.053,335.600 336.610,335.600 336.391 C 335.600 336.172,336.140 335.428,336.800 334.737 C 337.460 334.046,338.000 333.253,338.000 332.974 C 338.000 332.695,338.137 332.407,338.303 332.333 C 339.104 331.981,341.298 326.970,341.417 325.222 C 341.488 324.177,341.815 322.259,342.142 320.961 C 343.532 315.452,344.569 303.600,343.661 303.600 C 343.374 303.600,343.200 302.844,343.200 301.600 C 343.200 300.500,343.020 299.600,342.800 299.600 C 342.580 299.600,342.400 299.060,342.400 298.400 C 342.400 297.740,342.220 297.200,342.000 297.200 C 341.780 297.200,341.599 296.795,341.598 296.300 C 341.596 295.805,341.337 294.905,341.021 294.300 C 340.448 293.202,340.450 293.200,341.824 293.200 C 342.581 293.200,343.200 293.020,343.200 292.800 C 343.200 292.580,343.920 292.400,344.800 292.400 C 345.680 292.400,346.400 292.244,346.400 292.054 C 346.400 291.864,347.225 291.596,348.233 291.458 C 350.161 291.193,356.800 288.171,356.800 287.558 C 356.800 287.361,356.998 287.200,357.240 287.200 C 357.481 287.200,358.183 286.660,358.800 286.000 C 359.417 285.340,360.137 284.800,360.400 284.800 C 360.951 284.800,364.400 281.262,364.400 280.697 C 364.400 280.490,364.940 279.817,365.600 279.200 C 366.260 278.583,366.800 277.857,366.800 277.586 C 366.800 277.316,367.117 276.803,367.504 276.447 C 368.418 275.608,370.800 270.907,370.800 269.944 C 370.800 269.535,370.980 269.200,371.200 269.200 C 371.420 269.200,371.600 268.660,371.600 268.000 C 371.600 267.340,371.780 266.800,372.000 266.800 C 372.220 266.800,372.400 266.001,372.400 265.024 C 372.400 264.047,372.580 263.136,372.800 263.000 C 373.038 262.853,373.200 260.337,373.200 256.800 C 373.200 253.263,373.038 250.747,372.800 250.600 C 372.580 250.464,372.400 249.564,372.400 248.600 C 372.400 247.636,372.220 246.736,372.000 246.600 C 371.780 246.464,371.600 246.001,371.600 245.571 C 371.600 245.141,371.420 244.432,371.200 243.995 C 370.980 243.558,370.620 242.842,370.400 242.405 C 370.180 241.968,370.000 241.338,370.000 241.005 C 370.000 240.672,369.820 240.400,369.600 240.400 C 369.380 240.400,369.200 240.080,369.200 239.688 C 369.200 239.297,368.840 238.717,368.400 238.400 C 367.960 238.083,367.600 237.503,367.600 237.112 C 367.600 236.720,367.420 236.400,367.200 236.400 C 366.980 236.400,366.800 236.124,366.800 235.786 C 366.800 235.448,365.360 233.733,363.600 231.976 C 359.975 228.356,359.964 228.328,361.600 226.800 C 362.260 226.183,362.800 225.570,362.800 225.436 C 362.800 225.302,363.340 224.628,364.000 223.937 C 364.660 223.246,365.200 222.521,365.200 222.324 C 365.200 222.127,365.560 221.580,366.000 221.108 C 366.440 220.636,366.800 220.013,366.800 219.725 C 366.800 219.436,366.980 219.200,367.200 219.200 C 367.420 219.200,367.600 218.840,367.600 218.400 C 367.600 217.960,367.780 217.600,368.000 217.600 C 368.220 217.600,368.400 217.240,368.400 216.800 C 368.400 216.360,368.580 216.000,368.800 216.000 C 369.020 216.000,369.200 215.651,369.200 215.224 C 369.200 214.797,369.380 214.336,369.600 214.200 C 369.820 214.064,370.000 213.513,370.000 212.976 C 370.000 212.439,370.180 212.000,370.400 212.000 C 370.620 212.000,370.800 211.460,370.800 210.800 C 370.800 210.140,370.960 209.600,371.156 209.600 C 371.514 209.600,371.848 208.143,372.257 204.800 C 372.378 203.810,372.640 202.829,372.839 202.620 C 373.342 202.091,373.306 188.512,372.800 188.200 C 372.580 188.064,372.400 187.164,372.400 186.200 C 372.400 185.236,372.220 184.336,372.000 184.200 C 371.780 184.064,371.600 183.344,371.600 182.600 C 371.600 181.856,371.420 181.136,371.200 181.000 C 370.980 180.864,370.800 180.420,370.800 180.014 C 370.800 179.316,370.360 178.294,368.340 174.300 C 367.868 173.365,367.283 172.196,367.040 171.703 C 366.798 171.210,366.465 170.805,366.300 170.803 C 366.135 170.801,366.000 170.480,366.000 170.088 C 366.000 169.697,365.640 169.117,365.200 168.800 C 364.760 168.483,364.400 167.975,364.400 167.672 C 364.400 167.369,363.898 166.644,363.285 166.060 C 362.671 165.477,361.735 164.370,361.204 163.600 C 360.673 162.830,359.645 161.682,358.919 161.049 C 357.558 159.862,357.230 158.530,358.087 157.673 C 358.753 157.007,358.788 141.637,358.128 139.400 C 356.279 133.131,355.764 131.604,355.500 131.602 C 355.335 131.601,355.200 131.347,355.200 131.038 C 355.200 130.372,353.532 127.059,353.100 126.867 C 352.935 126.793,352.800 126.478,352.800 126.167 C 352.800 125.855,352.620 125.600,352.400 125.600 C 352.180 125.600,352.000 125.280,352.000 124.888 C 352.000 124.497,351.640 123.917,351.200 123.600 C 350.760 123.283,350.400 122.807,350.400 122.542 C 350.400 121.148,338.410 110.400,336.855 110.400 C 336.642 110.400,336.407 110.265,336.333 110.100 C 336.126 109.633,333.263 108.400,332.386 108.400 C 331.954 108.400,331.600 108.220,331.600 108.000 C 331.600 107.780,331.240 107.600,330.800 107.600 C 330.360 107.600,330.000 107.420,330.000 107.200 C 330.000 106.980,329.280 106.800,328.400 106.800 C 327.520 106.800,326.800 106.620,326.800 106.400 C 326.800 106.180,326.181 106.000,325.424 106.000 C 324.667 106.000,323.936 105.820,323.800 105.600 C 323.664 105.380,322.320 105.200,320.814 105.200 C 318.272 105.200,318.090 105.142,318.284 104.400 C 318.399 103.960,318.652 103.600,318.847 103.600 C 319.041 103.600,319.200 103.251,319.200 102.824 C 319.200 102.397,319.380 101.936,319.600 101.800 C 319.820 101.664,320.000 101.203,320.000 100.776 C 320.000 100.349,320.180 100.000,320.400 100.000 C 320.620 100.000,320.800 99.550,320.800 99.000 C 320.800 98.450,320.980 98.000,321.200 98.000 C 321.420 98.000,321.600 97.295,321.600 96.433 C 321.600 95.572,321.812 94.796,322.070 94.710 C 322.742 94.486,321.842 83.590,320.791 79.230 C 320.142 76.536,320.081 75.788,320.489 75.500 C 320.895 75.213,320.897 75.097,320.500 74.936 C 320.225 74.825,320.000 74.514,320.000 74.246 C 320.000 73.537,319.051 71.607,318.700 71.603 C 318.535 71.601,318.400 71.240,318.400 70.800 C 318.400 70.360,318.220 70.000,318.000 70.000 C 317.780 70.000,317.600 69.728,317.600 69.396 C 317.600 69.064,317.060 68.228,316.400 67.537 C 315.740 66.846,315.200 66.122,315.200 65.927 C 315.200 65.268,312.432 62.800,311.693 62.800 C 311.289 62.800,309.798 62.044,308.380 61.120 C 306.961 60.196,304.738 58.925,303.439 58.294 C 301.262 57.237,296.466 54.209,296.000 53.598 C 295.890 53.454,294.360 52.371,292.600 51.192 C 288.862 48.687,288.597 48.450,288.226 47.281 C 288.072 46.797,287.638 46.400,287.261 46.400 C 286.885 46.400,286.317 46.040,286.000 45.600 C 285.683 45.160,285.103 44.800,284.712 44.800 C 284.320 44.800,284.000 44.635,284.000 44.434 C 284.000 44.233,282.920 43.558,281.600 42.935 C 280.280 42.311,279.200 41.666,279.200 41.501 C 279.200 41.335,278.840 41.200,278.400 41.200 C 277.960 41.200,277.600 41.020,277.600 40.800 C 277.600 40.580,277.240 40.400,276.800 40.400 C 276.360 40.400,276.000 40.220,276.000 40.000 C 276.000 39.780,275.730 39.600,275.400 39.600 C 275.070 39.600,274.800 39.420,274.800 39.200 C 274.800 38.980,274.530 38.800,274.200 38.800 C 273.870 38.800,273.600 38.654,273.600 38.475 C 273.600 38.296,272.970 37.902,272.200 37.600 C 271.430 37.298,270.800 36.904,270.800 36.725 C 270.800 36.546,270.440 36.400,270.000 36.400 C 269.560 36.400,269.200 36.220,269.200 36.000 C 269.200 35.780,268.840 35.600,268.400 35.600 C 267.960 35.600,267.600 35.420,267.600 35.200 C 267.600 34.980,267.240 34.800,266.800 34.800 C 266.360 34.800,266.000 34.620,266.000 34.400 C 266.000 34.180,265.460 34.000,264.800 34.000 C 264.140 34.000,263.600 33.820,263.600 33.600 C 263.600 33.380,263.240 33.200,262.800 33.200 C 262.360 33.200,262.000 33.020,262.000 32.800 C 262.000 32.580,261.640 32.400,261.200 32.400 C 260.760 32.400,260.400 32.220,260.400 32.000 C 260.400 31.780,259.860 31.600,259.200 31.600 C 258.540 31.600,258.000 31.420,258.000 31.200 C 258.000 30.980,257.561 30.800,257.024 30.800 C 256.487 30.800,255.936 30.620,255.800 30.400 C 255.664 30.180,255.124 30.000,254.600 30.000 C 254.076 30.000,253.536 29.820,253.400 29.600 C 253.264 29.380,252.634 29.200,252.000 29.200 C 251.366 29.200,250.736 29.020,250.600 28.800 C 250.464 28.580,249.643 28.400,248.776 28.400 C 247.909 28.400,247.200 28.220,247.200 28.000 C 247.200 27.763,245.741 27.600,243.624 27.600 C 241.657 27.600,239.936 27.420,239.800 27.200 C 239.664 26.980,239.304 26.800,239.000 26.800 C 238.696 26.800,238.336 26.980,238.200 27.200 " stroke="none" fill="#f65264" fill-rule="evenodd"></path><path id="path1" d="M344.000 34.600 C 344.000 40.666,343.868 43.200,343.553 43.200 C 343.308 43.200,343.193 43.529,343.298 43.930 C 343.431 44.441,343.054 44.952,342.044 45.627 C 341.250 46.158,340.472 46.774,340.315 46.996 C 340.131 47.257,330.925 47.471,314.315 47.600 L 288.600 47.800 290.454 49.200 C 291.474 49.970,292.710 50.870,293.201 51.200 C 293.691 51.530,295.557 52.854,297.347 54.142 C 299.136 55.430,301.770 57.060,303.200 57.764 C 304.630 58.467,307.058 59.888,308.596 60.922 L 311.391 62.800 326.472 62.800 C 336.094 62.800,341.642 62.655,341.800 62.400 C 341.936 62.180,342.652 62.000,343.390 62.000 C 344.129 62.000,344.793 61.822,344.867 61.603 C 344.940 61.385,345.495 61.166,346.100 61.116 C 346.705 61.066,347.200 60.885,347.200 60.713 C 347.200 60.541,347.520 60.400,347.912 60.400 C 348.303 60.400,348.883 60.040,349.200 59.600 C 349.517 59.160,350.048 58.800,350.380 58.800 C 353.021 58.800,358.324 50.001,358.697 45.000 C 358.796 43.680,359.084 42.340,359.338 42.023 C 359.592 41.706,359.620 41.554,359.400 41.686 C 359.137 41.843,359.042 39.196,359.123 33.962 C 359.191 29.583,359.101 26.006,358.923 26.013 C 358.745 26.020,357.610 26.374,356.400 26.800 C 355.164 27.235,353.148 27.574,351.800 27.574 C 350.452 27.574,348.436 27.235,347.200 26.800 C 345.990 26.374,344.775 26.020,344.500 26.013 C 344.115 26.003,344.000 27.980,344.000 34.600 M24.600 49.201 C 21.051 50.975,19.799 55.888,22.120 58.931 C 22.729 59.729,27.708 63.733,33.185 67.829 C 38.662 71.924,43.223 75.483,43.320 75.738 C 43.418 75.992,38.824 79.705,33.112 83.990 C 22.258 92.131,21.483 92.857,21.038 95.294 C 20.043 100.751,25.659 105.043,30.520 102.541 C 32.978 101.276,59.875 80.899,60.798 79.603 C 62.013 77.897,62.128 74.386,61.029 72.545 C 60.143 71.060,60.107 71.031,44.200 59.128 C 28.510 47.389,28.368 47.317,24.600 49.201 M378.667 60.667 C 378.520 60.813,378.400 63.153,378.400 65.867 C 378.400 68.889,378.245 70.800,378.000 70.800 C 377.780 70.800,377.600 71.132,377.600 71.539 C 377.600 72.368,376.331 74.000,375.686 74.000 C 375.456 74.000,375.192 74.225,375.100 74.500 C 374.970 74.891,369.001 75.044,347.767 75.200 L 320.600 75.400 320.650 76.400 C 320.678 76.950,320.927 78.300,321.204 79.400 C 321.480 80.500,321.818 83.380,321.954 85.800 L 322.200 90.200 349.400 90.152 C 374.490 90.108,379.454 89.959,380.000 89.229 C 380.110 89.083,381.216 88.472,382.459 87.872 C 383.701 87.272,384.938 86.516,385.208 86.191 C 385.477 85.866,385.901 85.587,386.149 85.571 C 386.522 85.547,388.237 83.651,390.200 81.091 C 390.987 80.065,391.600 78.801,391.600 78.205 C 391.600 77.872,391.780 77.600,392.000 77.600 C 392.220 77.600,392.400 77.075,392.400 76.433 C 392.400 75.792,392.569 75.207,392.776 75.133 C 392.983 75.060,393.208 74.072,393.275 72.938 C 393.343 71.803,393.533 70.959,393.699 71.061 C 393.865 71.164,394.000 68.807,394.000 65.824 C 394.000 59.746,394.072 59.863,391.144 61.191 C 388.767 62.269,384.358 62.273,381.304 61.200 C 378.648 60.267,378.996 60.337,378.667 60.667 M79.165 90.912 C 75.093 93.656,75.091 99.606,79.162 102.176 L 80.784 103.200 96.492 103.193 C 112.006 103.187,112.219 103.176,113.770 102.293 C 118.168 99.790,118.043 92.877,113.559 90.640 C 111.194 89.460,80.965 89.699,79.165 90.912 M24.400 132.022 C 19.954 134.630,19.808 140.612,24.116 143.684 C 25.997 145.026,49.309 145.125,51.558 143.800 C 55.967 141.203,56.112 135.411,51.847 132.225 C 50.121 130.935,26.549 130.761,24.400 132.022 M72.378 132.331 C 68.154 135.016,68.165 140.782,72.398 143.650 L 73.800 144.600 117.200 144.600 C 157.635 144.600,160.687 144.553,161.868 143.906 C 166.792 141.212,166.321 133.902,161.081 131.675 C 160.240 131.318,149.307 131.200,117.059 131.200 L 74.157 131.200 72.378 132.331 M24.400 159.631 C 19.789 162.306,19.857 168.950,24.521 171.500 C 26.073 172.349,47.101 172.781,49.921 172.021 C 56.130 170.349,56.756 161.839,50.851 159.365 C 48.433 158.352,26.220 158.575,24.400 159.631 M87.000 159.367 C 81.203 161.955,81.867 170.348,87.999 172.000 C 89.042 172.281,99.105 172.384,118.281 172.310 L 147.000 172.200 148.481 171.200 C 152.717 168.341,152.553 162.330,148.169 159.761 L 146.530 158.800 117.365 158.816 C 93.889 158.828,87.966 158.936,87.000 159.367 M24.600 187.187 C 19.648 189.690,19.768 196.633,24.807 199.204 C 26.261 199.945,27.176 200.000,38.106 200.000 L 49.843 200.000 51.700 198.823 C 55.894 196.163,56.105 190.752,52.132 187.721 L 50.664 186.600 38.432 186.489 C 26.828 186.383,26.118 186.419,24.600 187.187 M73.668 186.683 C 68.053 187.774,67.909 197.080,73.471 199.404 C 76.127 200.513,159.019 200.277,161.411 199.153 C 166.086 196.955,166.731 191.130,162.663 187.842 L 161.126 186.600 117.863 186.551 C 94.068 186.524,74.181 186.583,73.668 186.683 M24.600 214.789 C 19.798 217.209,19.752 224.093,24.521 226.700 C 26.602 227.838,49.601 227.753,51.558 226.600 C 55.967 224.003,56.112 218.211,51.847 215.025 C 50.136 213.747,27.064 213.547,24.600 214.789 M87.000 214.567 C 81.882 216.851,81.608 224.012,86.535 226.708 C 87.702 227.346,90.094 227.400,117.400 227.400 L 147.000 227.400 148.479 226.400 C 152.730 223.525,152.463 217.077,147.999 214.799 C 145.986 213.773,89.263 213.557,87.000 214.567 M24.400 242.456 C 19.713 245.312,19.779 251.707,24.521 254.300 C 26.602 255.438,49.601 255.353,51.558 254.200 C 56.078 251.537,56.102 245.561,51.604 242.500 C 49.594 241.132,26.634 241.095,24.400 242.456 M72.928 242.222 C 68.858 244.005,68.008 250.168,71.419 253.163 C 73.806 255.259,72.991 255.225,118.276 255.109 L 160.600 255.000 162.059 254.093 C 166.726 251.191,166.326 244.618,161.326 242.049 C 159.903 241.318,74.612 241.485,72.928 242.222 M25.279 269.540 C 19.727 271.109,19.524 279.384,24.975 281.946 C 27.846 283.296,48.500 283.238,51.169 281.873 C 56.314 279.241,56.171 271.935,50.932 269.746 C 49.553 269.169,27.224 268.990,25.279 269.540 M87.000 269.764 C 81.620 272.199,81.598 279.419,86.962 281.940 C 89.414 283.093,144.398 283.313,147.107 282.181 C 152.315 280.005,153.105 273.267,148.516 270.157 C 147.040 269.156,89.160 268.786,87.000 269.764 M24.600 297.464 C 19.790 299.994,19.745 306.889,24.521 309.500 C 26.602 310.638,49.601 310.553,51.558 309.400 C 56.078 306.737,56.102 300.761,51.604 297.700 C 49.856 296.510,26.795 296.308,24.600 297.464 M72.872 297.473 C 68.121 299.814,68.149 306.891,72.921 309.500 C 74.116 310.154,77.021 310.200,117.400 310.200 L 160.600 310.200 162.270 309.066 C 165.790 306.678,166.411 302.119,163.633 299.064 C 161.448 296.662,164.275 296.799,117.320 296.809 C 78.215 296.817,74.076 296.879,72.872 297.473 M343.648 314.093 C 343.361 316.572,342.855 319.590,342.523 320.800 C 342.192 322.010,341.829 323.396,341.717 323.879 L 341.515 324.759 358.224 324.879 C 371.150 324.973,374.972 325.113,375.100 325.500 C 375.192 325.775,375.448 326.000,375.669 326.000 C 376.269 326.000,377.571 327.697,377.587 328.500 C 377.594 328.885,377.780 329.200,378.000 329.200 C 378.245 329.200,378.400 331.125,378.400 334.176 C 378.400 339.898,378.360 339.835,381.334 338.789 C 384.049 337.835,388.313 337.771,390.600 338.650 C 391.480 338.988,392.605 339.361,393.100 339.479 L 394.000 339.693 394.000 334.070 C 394.000 330.753,393.836 328.346,393.600 328.200 C 393.380 328.064,393.200 327.243,393.200 326.376 C 393.200 325.509,393.020 324.800,392.800 324.800 C 392.580 324.800,392.400 324.260,392.400 323.600 C 392.400 322.940,392.220 322.400,392.000 322.400 C 391.780 322.400,391.600 322.040,391.600 321.600 C 391.600 321.160,391.420 320.800,391.200 320.800 C 390.980 320.800,390.840 320.665,390.889 320.500 C 391.007 320.101,389.555 317.885,388.910 317.480 C 388.629 317.304,388.392 316.944,388.383 316.680 C 388.341 315.510,380.049 310.400,378.192 310.400 C 377.893 310.400,377.540 310.227,377.410 310.016 C 377.265 309.782,370.750 309.623,360.671 309.609 L 344.170 309.585 343.648 314.093 M24.800 324.918 C 21.037 326.664,19.772 331.755,22.270 335.100 C 24.117 337.574,24.284 337.600,38.087 337.600 L 50.614 337.600 52.103 336.589 C 56.146 333.841,55.842 327.636,51.546 325.219 C 49.815 324.244,26.809 323.986,24.800 324.918 M86.600 325.148 C 81.950 328.036,81.720 334.133,86.158 336.840 C 87.660 337.755,145.980 338.049,147.726 337.150 C 152.647 334.616,152.806 327.652,147.999 325.199 C 145.636 323.994,88.535 323.946,86.600 325.148 M333.589 337.882 C 333.045 338.256,331.740 339.371,330.689 340.359 C 324.430 346.238,313.290 350.800,305.193 350.800 C 304.187 350.800,304.000 350.957,304.000 351.800 L 304.000 352.800 322.200 352.800 C 334.743 352.800,340.400 352.932,340.400 353.224 C 340.400 353.457,340.580 353.536,340.800 353.400 C 341.020 353.264,341.200 353.373,341.200 353.643 C 341.200 353.913,341.314 354.019,341.453 353.880 C 341.805 353.528,343.426 355.664,343.282 356.290 C 343.218 356.570,343.353 356.800,343.582 356.800 C 343.860 356.800,344.000 359.707,344.000 365.447 L 344.000 374.093 344.900 373.868 C 345.395 373.745,346.784 373.364,347.987 373.022 C 351.380 372.057,353.110 372.191,358.363 373.826 L 359.325 374.126 359.097 363.846 C 358.972 358.192,358.697 353.349,358.486 353.083 C 358.275 352.817,358.160 352.243,358.230 351.807 C 358.299 351.371,358.068 350.696,357.716 350.307 C 357.364 349.918,357.222 349.600,357.400 349.600 C 357.578 349.600,357.456 349.285,357.128 348.900 C 356.800 348.515,356.300 347.615,356.017 346.900 C 355.734 346.185,355.339 345.600,355.139 345.600 C 354.939 345.600,354.656 345.285,354.510 344.900 C 354.237 344.180,353.200 342.966,353.200 343.368 C 353.200 343.491,352.686 343.054,352.057 342.396 C 351.428 341.738,350.618 341.200,350.257 341.200 C 349.896 341.200,349.600 341.020,349.600 340.800 C 349.600 340.580,349.319 340.400,348.976 340.400 C 348.633 340.400,348.464 340.220,348.600 340.000 C 348.740 339.773,348.404 339.600,347.824 339.600 C 347.261 339.600,346.800 339.420,346.800 339.200 C 346.800 338.980,346.451 338.800,346.024 338.800 C 345.597 338.800,345.136 338.620,345.000 338.400 C 344.864 338.180,344.043 338.000,343.176 338.000 C 342.309 338.000,341.600 337.820,341.600 337.600 C 341.600 336.867,334.710 337.109,333.589 337.882 " stroke="none" fill="#5dcabf" fill-rule="evenodd"></path><path id="path2" d="M194.500 0.282 C 194.005 0.378,193.600 0.623,193.600 0.828 C 193.600 1.033,193.332 1.200,193.005 1.200 C 191.720 1.200,187.200 5.720,187.200 7.005 C 187.200 7.332,187.020 7.600,186.800 7.600 C 186.580 7.600,186.400 8.014,186.400 8.520 C 186.400 9.026,186.213 9.627,185.984 9.856 C 185.708 10.132,185.646 13.205,185.800 19.036 C 186.102 30.476,186.102 369.524,185.800 380.964 C 185.646 386.795,185.708 389.868,185.984 390.144 C 186.213 390.373,186.400 390.974,186.400 391.480 C 186.400 391.986,186.580 392.400,186.800 392.400 C 187.020 392.400,187.200 392.668,187.200 392.995 C 187.200 393.949,190.714 398.000,191.540 398.000 C 191.793 398.000,192.000 398.180,192.000 398.400 C 192.000 398.620,192.345 398.800,192.767 398.800 C 193.188 398.800,193.608 399.025,193.700 399.300 C 193.825 399.672,195.490 399.800,200.201 399.800 C 204.912 399.800,206.576 399.672,206.700 399.300 C 206.792 399.025,207.100 398.800,207.384 398.800 C 207.669 398.800,208.130 398.526,208.408 398.190 C 208.686 397.855,208.997 397.664,209.099 397.766 C 209.371 398.037,210.910 396.375,211.568 395.100 C 211.880 394.495,212.285 394.000,212.468 394.000 C 212.650 394.000,212.800 393.640,212.800 393.200 C 212.800 392.760,212.980 392.400,213.200 392.400 C 213.420 392.400,213.600 391.986,213.600 391.480 C 213.600 390.974,213.798 390.362,214.041 390.119 C 214.358 389.802,214.402 381.895,214.196 361.739 C 213.828 325.796,213.829 60.618,214.196 32.058 C 214.396 16.496,214.352 10.192,214.038 9.878 C 213.797 9.637,213.600 9.026,213.600 8.520 C 213.600 8.014,213.420 7.600,213.200 7.600 C 212.980 7.600,212.800 7.240,212.800 6.800 C 212.800 6.360,212.659 6.000,212.486 6.000 C 212.314 6.000,211.880 5.505,211.521 4.900 C 210.705 3.520,209.200 1.770,209.200 2.201 C 209.200 2.379,208.885 2.256,208.500 1.929 C 206.455 0.191,199.327 -0.647,194.500 0.282 M350.707 27.490 C 351.426 27.579,352.506 27.577,353.107 27.486 C 353.708 27.395,353.120 27.322,351.800 27.324 C 350.480 27.326,349.988 27.401,350.707 27.490 M350.700 372.682 C 351.195 372.778,352.005 372.778,352.500 372.682 C 352.995 372.587,352.590 372.509,351.600 372.509 C 350.610 372.509,350.205 372.587,350.700 372.682 " stroke="none" fill="#bcc4c4" fill-rule="evenodd"></path><path id="path3" d="M344.641 0.997 C 343.563 1.544,342.418 2.367,342.096 2.827 C 341.774 3.286,340.901 4.272,340.155 5.018 C 339.410 5.763,338.800 6.639,338.800 6.963 C 338.800 7.287,338.620 7.664,338.400 7.800 C 338.180 7.936,338.000 8.476,338.000 9.000 C 338.000 9.524,337.820 10.064,337.600 10.200 C 337.380 10.336,337.200 12.057,337.200 14.024 C 337.200 16.141,337.363 17.600,337.600 17.600 C 337.820 17.600,338.000 18.140,338.000 18.800 C 338.000 19.460,338.136 20.000,338.302 20.000 C 338.469 20.000,338.825 20.495,339.094 21.100 C 339.744 22.559,342.070 25.206,342.700 25.203 C 342.975 25.201,343.200 25.383,343.200 25.606 C 343.200 25.830,343.695 25.981,344.300 25.943 C 344.905 25.904,346.097 26.172,346.949 26.537 C 349.059 27.440,354.555 27.437,356.651 26.530 C 357.503 26.162,358.600 25.904,359.088 25.957 C 359.576 26.011,360.255 25.817,360.596 25.527 C 362.798 23.657,363.518 22.853,364.025 21.700 C 364.338 20.985,364.731 20.400,364.898 20.400 C 365.064 20.400,365.200 19.950,365.200 19.400 C 365.200 18.850,365.380 18.400,365.600 18.400 C 365.843 18.400,366.000 16.600,366.000 13.800 C 366.000 11.000,365.843 9.200,365.600 9.200 C 365.380 9.200,365.200 8.784,365.200 8.275 C 365.200 7.767,364.840 6.964,364.400 6.492 C 363.960 6.020,363.600 5.440,363.600 5.203 C 363.600 4.644,360.956 2.000,360.397 2.000 C 360.160 2.000,359.602 1.660,359.156 1.244 C 357.345 -0.442,347.799 -0.605,344.641 0.997 M381.600 34.400 C 381.600 34.620,381.060 34.800,380.400 34.800 C 379.740 34.800,379.200 34.950,379.200 35.132 C 379.200 35.315,378.705 35.719,378.100 36.030 C 377.495 36.340,376.674 36.956,376.276 37.397 C 374.427 39.446,374.000 40.048,374.000 40.603 C 374.000 40.931,373.865 41.201,373.700 41.203 C 373.253 41.208,372.400 43.226,372.400 44.280 C 372.400 44.786,372.220 45.200,372.000 45.200 C 371.772 45.200,371.600 46.392,371.600 47.976 C 371.600 49.503,371.780 50.864,372.000 51.000 C 372.220 51.136,372.400 51.867,372.400 52.624 C 372.400 53.381,372.580 54.000,372.800 54.000 C 373.020 54.000,373.200 54.326,373.200 54.725 C 373.200 55.123,373.560 55.836,374.000 56.308 C 374.440 56.780,374.800 57.285,374.800 57.429 C 374.800 58.177,377.861 60.400,378.891 60.400 C 379.515 60.400,380.695 60.695,381.513 61.057 C 383.538 61.951,389.337 61.948,391.000 61.052 C 391.660 60.696,392.703 60.404,393.318 60.402 C 393.934 60.401,394.853 59.996,395.363 59.500 C 395.873 59.005,396.672 58.337,397.139 58.016 C 400.164 55.935,401.318 43.173,398.700 40.753 C 398.315 40.397,398.000 39.882,398.000 39.607 C 398.000 39.067,395.260 36.400,394.705 36.400 C 394.519 36.400,393.980 36.040,393.508 35.600 C 393.036 35.160,392.233 34.800,391.725 34.800 C 391.216 34.800,390.800 34.620,390.800 34.400 C 390.800 34.157,389.000 34.000,386.200 34.000 C 383.400 34.000,381.600 34.157,381.600 34.400 M384.000 338.391 C 383.010 338.547,381.693 338.883,381.074 339.138 C 380.455 339.392,379.455 339.600,378.852 339.600 C 377.731 339.600,374.800 341.882,374.800 342.754 C 374.800 342.999,374.620 343.200,374.400 343.200 C 374.180 343.200,374.000 343.481,374.000 343.824 C 374.000 344.167,373.820 344.336,373.600 344.200 C 373.380 344.064,373.200 344.313,373.200 344.753 C 373.200 345.193,373.020 345.664,372.800 345.800 C 372.580 345.936,372.400 346.667,372.400 347.424 C 372.400 348.181,372.220 348.800,372.000 348.800 C 371.769 348.800,371.600 350.067,371.600 351.800 C 371.600 353.533,371.769 354.800,372.000 354.800 C 372.220 354.800,372.400 355.340,372.400 356.000 C 372.400 356.660,372.580 357.200,372.800 357.200 C 373.020 357.200,373.200 357.560,373.200 358.000 C 373.200 358.440,373.380 358.800,373.600 358.800 C 373.820 358.800,374.000 359.083,374.000 359.429 C 374.000 359.774,374.225 360.283,374.500 360.558 C 374.775 360.834,375.450 361.629,376.000 362.326 C 376.550 363.023,377.225 363.594,377.500 363.596 C 377.775 363.598,378.001 363.735,378.003 363.900 C 378.007 364.306,379.986 365.200,380.880 365.200 C 381.276 365.200,381.600 365.380,381.600 365.600 C 381.600 365.843,383.400 366.000,386.200 366.000 C 389.000 366.000,390.800 365.843,390.800 365.600 C 390.800 365.380,391.216 365.200,391.725 365.200 C 392.233 365.200,393.036 364.840,393.508 364.400 C 393.980 363.960,394.575 363.600,394.829 363.600 C 395.343 363.600,398.000 360.839,398.000 360.305 C 398.000 360.119,398.340 359.602,398.756 359.156 C 401.022 356.723,400.065 342.400,397.636 342.400 C 397.488 342.400,396.699 341.770,395.882 341.000 C 394.992 340.160,393.993 339.600,393.386 339.600 C 392.830 339.600,391.795 339.359,391.087 339.064 C 389.359 338.343,386.202 338.044,384.000 338.391 M346.800 373.475 C 346.030 373.831,344.905 374.092,344.300 374.055 C 343.695 374.018,343.200 374.170,343.200 374.394 C 343.200 374.617,343.002 374.800,342.760 374.800 C 342.352 374.800,341.179 375.939,339.500 377.964 C 339.115 378.429,338.800 379.066,338.800 379.381 C 338.800 379.695,338.620 380.064,338.400 380.200 C 338.180 380.336,338.000 380.887,338.000 381.424 C 338.000 381.961,337.820 382.400,337.600 382.400 C 336.616 382.400,337.258 389.737,338.449 392.095 C 338.642 392.477,338.800 392.968,338.800 393.188 C 338.800 393.407,339.610 394.431,340.600 395.465 C 341.590 396.498,342.400 397.470,342.400 397.625 C 342.400 400.064,356.714 401.030,359.156 398.756 C 359.602 398.340,360.160 398.000,360.397 398.000 C 360.956 398.000,363.600 395.356,363.600 394.797 C 363.600 394.560,363.960 393.980,364.400 393.508 C 364.840 393.036,365.200 392.233,365.200 391.725 C 365.200 391.216,365.380 390.800,365.600 390.800 C 365.843 390.800,366.000 389.000,366.000 386.200 C 366.000 383.400,365.843 381.600,365.600 381.600 C 365.380 381.600,365.200 381.060,365.200 380.400 C 365.200 379.740,365.020 379.200,364.800 379.200 C 364.580 379.200,364.400 378.930,364.400 378.600 C 364.400 378.270,364.220 378.000,364.000 378.000 C 363.780 378.000,363.598 377.775,363.596 377.500 C 363.594 377.225,363.023 376.550,362.326 376.000 C 361.629 375.450,360.821 374.762,360.530 374.471 C 360.238 374.181,359.595 373.983,359.100 374.032 C 358.605 374.081,357.660 373.880,357.000 373.586 C 355.143 372.757,348.510 372.685,346.800 373.475 " stroke="none" fill="#f3c41c" fill-rule="evenodd"></path><path id="path4" d="M359.116 33.900 C 359.052 38.245,359.121 41.957,359.270 42.150 C 359.418 42.342,359.559 38.787,359.583 34.250 C 359.607 29.712,359.538 26.000,359.430 26.000 C 359.321 26.000,359.180 29.555,359.116 33.900 M15.000 27.290 C 14.340 27.512,13.487 27.853,13.105 28.047 C 12.723 28.241,12.138 28.400,11.805 28.400 C 11.472 28.400,11.200 28.536,11.200 28.702 C 11.200 28.869,10.635 29.255,9.944 29.561 C 8.663 30.128,6.959 31.476,5.446 33.118 C 2.836 35.952,2.000 37.010,2.000 37.478 C 2.000 37.765,1.820 38.000,1.600 38.000 C 1.380 38.000,1.200 38.324,1.200 38.720 C 1.200 39.116,0.975 39.665,0.700 39.940 C -0.036 40.676,-0.036 359.324,0.700 360.060 C 0.975 360.335,1.200 360.884,1.200 361.280 C 1.200 361.676,1.380 362.000,1.600 362.000 C 1.820 362.000,2.000 362.235,2.000 362.522 C 2.000 362.990,2.836 364.048,5.446 366.882 C 6.959 368.524,8.663 369.872,9.944 370.439 C 10.635 370.745,11.200 371.131,11.200 371.298 C 11.200 371.464,11.472 371.600,11.805 371.600 C 12.138 371.600,12.723 371.758,13.105 371.951 C 15.531 373.176,17.215 373.200,101.114 373.200 C 184.206 373.200,185.579 373.187,185.986 372.426 C 186.566 371.343,186.566 28.657,185.986 27.574 C 185.509 26.683,17.628 26.404,15.000 27.290 M288.400 47.629 C 288.400 48.198,289.023 48.780,291.300 50.338 C 292.345 51.053,293.200 51.450,293.200 51.219 C 293.200 50.989,293.046 50.800,292.858 50.800 C 292.669 50.800,291.634 50.125,290.558 49.300 L 288.600 47.800 313.200 47.595 L 337.800 47.391 313.100 47.295 C 295.743 47.228,288.400 47.327,288.400 47.629 M30.415 49.125 C 31.585 49.738,52.674 65.332,58.440 69.848 C 61.916 72.570,62.901 76.649,60.798 79.603 C 59.875 80.899,32.978 101.276,30.520 102.541 C 25.659 105.043,20.043 100.751,21.038 95.294 C 21.483 92.857,22.258 92.131,33.112 83.990 C 38.824 79.705,43.418 75.992,43.320 75.738 C 43.223 75.483,38.662 71.924,33.185 67.829 C 21.805 59.319,21.009 58.494,21.023 55.240 C 21.046 50.171,26.112 46.872,30.415 49.125 M294.200 52.165 C 294.640 52.523,295.342 53.103,295.759 53.454 C 297.100 54.583,302.488 58.000,302.928 58.000 C 303.162 58.000,302.318 57.377,301.053 56.615 C 299.788 55.853,298.089 54.711,297.277 54.076 C 295.620 52.782,292.810 51.036,294.200 52.165 M320.456 77.600 C 320.456 77.930,320.611 78.560,320.800 79.000 C 321.017 79.504,321.144 79.578,321.144 79.200 C 321.144 78.870,320.989 78.240,320.800 77.800 C 320.583 77.296,320.456 77.222,320.456 77.600 M321.468 82.200 C 321.771 84.177,322.002 84.514,321.994 82.967 C 321.991 82.325,321.816 81.530,321.605 81.200 C 321.345 80.791,321.301 81.110,321.468 82.200 M387.775 84.100 L 386.600 85.400 387.900 84.225 C 388.615 83.579,389.200 82.994,389.200 82.925 C 389.200 82.616,388.870 82.888,387.775 84.100 M113.559 90.640 C 118.043 92.877,118.168 99.790,113.770 102.293 C 112.219 103.176,112.006 103.187,96.492 103.193 L 80.784 103.200 79.162 102.176 C 75.091 99.606,75.093 93.656,79.165 90.912 C 80.965 89.699,111.194 89.460,113.559 90.640 M51.847 132.225 C 56.112 135.411,55.967 141.203,51.558 143.800 C 49.309 145.125,25.997 145.026,24.116 143.684 C 19.808 140.612,19.954 134.630,24.400 132.022 C 26.549 130.761,50.121 130.935,51.847 132.225 M161.081 131.675 C 166.321 133.902,166.792 141.212,161.868 143.906 C 160.687 144.553,157.635 144.600,117.200 144.600 L 73.800 144.600 72.398 143.650 C 68.165 140.782,68.154 135.016,72.378 132.331 L 74.157 131.200 117.059 131.200 C 149.307 131.200,160.240 131.318,161.081 131.675 M50.851 159.365 C 56.756 161.839,56.130 170.349,49.921 172.021 C 47.101 172.781,26.073 172.349,24.521 171.500 C 19.857 168.950,19.789 162.306,24.400 159.631 C 26.220 158.575,48.433 158.352,50.851 159.365 M148.169 159.761 C 152.553 162.330,152.717 168.341,148.481 171.200 L 147.000 172.200 118.281 172.310 C 99.105 172.384,89.042 172.281,87.999 172.000 C 83.102 170.681,81.311 164.694,84.724 161.051 C 86.875 158.756,85.752 158.833,117.365 158.816 L 146.530 158.800 148.169 159.761 M52.132 187.721 C 56.105 190.752,55.894 196.163,51.700 198.823 L 49.843 200.000 38.106 200.000 C 23.187 200.000,21.122 199.182,21.041 193.242 C 20.957 187.093,22.877 186.347,38.432 186.489 L 50.664 186.600 52.132 187.721 M162.663 187.842 C 166.731 191.130,166.086 196.955,161.411 199.153 C 159.019 200.277,76.127 200.513,73.471 199.404 C 68.948 197.514,67.772 191.828,71.197 188.403 C 73.258 186.342,69.366 186.496,117.863 186.551 L 161.126 186.600 162.663 187.842 M51.847 215.025 C 56.112 218.211,55.967 224.003,51.558 226.600 C 49.601 227.753,26.602 227.838,24.521 226.700 C 19.752 224.093,19.798 217.209,24.600 214.789 C 27.064 213.547,50.136 213.747,51.847 215.025 M147.999 214.799 C 152.463 217.077,152.730 223.525,148.479 226.400 L 147.000 227.400 117.400 227.400 C 90.094 227.400,87.702 227.346,86.535 226.708 C 81.608 224.012,81.882 216.851,87.000 214.567 C 89.263 213.557,145.986 213.773,147.999 214.799 M51.604 242.500 C 56.102 245.561,56.078 251.537,51.558 254.200 C 49.601 255.353,26.602 255.438,24.521 254.300 C 19.779 251.707,19.713 245.312,24.400 242.456 C 26.634 241.095,49.594 241.132,51.604 242.500 M161.326 242.049 C 166.326 244.618,166.726 251.191,162.059 254.093 L 160.600 255.000 118.276 255.109 C 72.991 255.225,73.806 255.259,71.419 253.163 C 68.008 250.168,68.858 244.005,72.928 242.222 C 74.612 241.485,159.903 241.318,161.326 242.049 M50.932 269.746 C 56.171 271.935,56.314 279.241,51.169 281.873 C 48.500 283.238,27.846 283.296,24.975 281.946 C 19.524 279.384,19.727 271.109,25.279 269.540 C 27.224 268.990,49.553 269.169,50.932 269.746 M148.516 270.157 C 153.105 273.267,152.315 280.005,147.107 282.181 C 144.398 283.313,89.414 283.093,86.962 281.940 C 81.598 279.419,81.620 272.199,87.000 269.764 C 89.160 268.786,147.040 269.156,148.516 270.157 M51.604 297.700 C 56.102 300.761,56.078 306.737,51.558 309.400 C 49.601 310.553,26.602 310.638,24.521 309.500 C 19.745 306.889,19.790 299.994,24.600 297.464 C 26.795 296.308,49.856 296.510,51.604 297.700 M161.520 297.364 C 166.271 299.846,166.670 306.081,162.270 309.066 L 160.600 310.200 117.400 310.200 C 77.021 310.200,74.116 310.154,72.921 309.500 C 68.149 306.891,68.121 299.814,72.872 297.473 C 74.750 296.547,159.757 296.443,161.520 297.364 M343.701 311.800 C 343.705 312.680,343.787 312.993,343.883 312.495 C 343.979 311.998,343.975 311.278,343.875 310.895 C 343.775 310.513,343.696 310.920,343.701 311.800 M51.546 325.219 C 55.842 327.636,56.146 333.841,52.103 336.589 L 50.614 337.600 38.087 337.600 C 24.284 337.600,24.117 337.574,22.270 335.100 C 19.772 331.755,21.037 326.664,24.800 324.918 C 26.809 323.986,49.815 324.244,51.546 325.219 M147.999 325.199 C 152.806 327.652,152.647 334.616,147.726 337.150 C 145.980 338.049,87.660 337.755,86.158 336.840 C 81.720 334.133,81.950 328.036,86.600 325.148 C 88.535 323.946,145.636 323.994,147.999 325.199 M328.800 341.668 C 327.752 342.620,327.501 342.965,328.200 342.495 C 329.304 341.751,331.138 339.977,330.762 340.017 C 330.673 340.026,329.790 340.770,328.800 341.668 M312.200 349.600 C 311.696 349.817,311.622 349.944,312.000 349.944 C 312.330 349.944,312.960 349.789,313.400 349.600 C 313.904 349.383,313.978 349.256,313.600 349.256 C 313.270 349.256,312.640 349.411,312.200 349.600 M304.905 350.687 C 305.514 350.779,306.414 350.777,306.905 350.682 C 307.397 350.587,306.900 350.511,305.800 350.514 C 304.700 350.517,304.297 350.595,304.905 350.687 M359.109 364.300 C 359.275 374.471,359.452 375.147,359.530 365.900 C 359.569 361.335,359.465 357.600,359.300 357.600 C 359.135 357.599,359.049 360.614,359.109 364.300 " stroke="none" fill="#507577" fill-rule="evenodd"></path></g></svg>